<svg width="121" height="121" viewBox="0 0 121 121" fill="none" xmlns="http://www.w3.org/2000/svg">
<path d="M60.5 121C93.9132 121 121 93.9132 121 60.5C121 27.0868 93.9132 0 60.5 0C27.0868 0 0 27.0868 0 60.5C0 93.9132 27.0868 121 60.5 121Z" fill="#2B2E3A"/>
<path d="M47.5029 33.8847C35.2115 31.6462 25.4927 33.9891 21.6193 40.698C18.729 45.7044 19.5552 52.3419 23.6234 59.437C23.7037 59.5843 23.8126 59.7141 23.9438 59.8188C24.075 59.9235 24.2257 60.001 24.3873 60.0466C24.5488 60.0923 24.7177 60.1052 24.8843 60.0847C25.0509 60.0642 25.2117 60.0106 25.3573 59.9271C25.5029 59.8436 25.6303 59.7319 25.7322 59.5985C25.834 59.4651 25.9082 59.3127 25.9503 59.1502C25.9925 58.9878 26.0018 58.8185 25.9776 58.6524C25.9535 58.4864 25.8965 58.3267 25.8099 58.183C22.1458 51.7917 21.4326 46.0636 23.8025 41.9586C27.0203 36.3855 35.6889 34.2954 47.051 36.3647C47.3775 36.4191 47.7123 36.3428 47.9831 36.1525C48.2539 35.9621 48.4389 35.6728 48.4982 35.3472C48.5576 35.0216 48.4864 34.6857 48.3002 34.412C48.114 34.1384 47.8276 33.949 47.5029 33.8847V33.8847ZM30.0151 68.061C34.9851 73.5226 41.442 78.6457 48.806 82.8968C66.636 93.1912 85.6179 95.9426 94.9727 89.5641C95.1126 89.4722 95.2328 89.3533 95.3263 89.2145C95.4198 89.0756 95.4848 88.9196 95.5173 88.7554C95.5498 88.5912 95.5493 88.4221 95.5158 88.2581C95.4823 88.0941 95.4165 87.9384 95.3222 87.8001C95.2278 87.6618 95.1069 87.5437 94.9665 87.4526C94.826 87.3616 94.6688 87.2994 94.5041 87.2698C94.3393 87.2401 94.1703 87.2435 94.0069 87.2799C93.8435 87.3163 93.689 87.3848 93.5524 87.4815C85.1797 93.1903 67.1489 90.5765 50.0666 80.714C42.9229 76.5896 36.6701 71.6286 31.8797 66.3642C31.7685 66.241 31.6341 66.141 31.4841 66.0699C31.3341 65.9988 31.1716 65.9581 31.0059 65.9499C30.8401 65.9418 30.6744 65.9665 30.5182 66.0225C30.362 66.0786 30.2184 66.165 30.0957 66.2767C29.9729 66.3884 29.8735 66.5232 29.803 66.6734C29.7324 66.8237 29.6923 66.9863 29.6848 67.1521C29.6773 67.3179 29.7026 67.4835 29.7593 67.6395C29.816 67.7955 29.9029 67.9387 30.0151 68.061V68.061Z" fill="#9FEAF9"/>
<path d="M91.9884 66.5277C100.037 57.0198 102.847 47.457 98.9813 40.7623C96.1374 35.8358 90.1247 33.2348 82.1335 33.1308C81.8023 33.1313 81.4846 33.2621 81.2491 33.4949C81.0136 33.7277 80.8792 34.0439 80.8749 34.3751C80.8706 34.7062 80.9968 35.0258 81.2262 35.2646C81.4556 35.5034 81.7698 35.6424 82.1009 35.6515C89.2876 35.7451 94.4679 37.9859 96.7986 42.0229C100.009 47.5837 97.5029 56.1113 90.0642 64.899C89.9551 65.025 89.872 65.1715 89.8198 65.3298C89.7677 65.4882 89.7475 65.6553 89.7603 65.8216C89.7732 65.9878 89.8189 66.1498 89.8949 66.2983C89.9708 66.4467 90.0754 66.5786 90.2027 66.6863C90.33 66.7941 90.4773 66.8755 90.6363 66.9258C90.7952 66.9762 90.9626 66.9946 91.1286 66.9798C91.2947 66.9651 91.4562 66.9175 91.6038 66.8399C91.7514 66.7623 91.8821 66.6562 91.9884 66.5277ZM71.3045 34.3044C64.0275 35.8637 56.2816 38.9123 48.8429 43.2069C30.4367 53.8336 18.4298 69.5036 20.0974 80.8658C20.1196 81.0311 20.1744 81.1904 20.2587 81.3344C20.3429 81.4784 20.4549 81.6042 20.5882 81.7046C20.7214 81.805 20.8733 81.8779 21.0349 81.9192C21.1966 81.9604 21.3648 81.9692 21.5299 81.945C21.6949 81.9207 21.8535 81.864 21.9965 81.778C22.1395 81.692 22.2639 81.5785 22.3627 81.444C22.4614 81.3095 22.5325 81.1568 22.5718 80.9947C22.6111 80.8325 22.6178 80.6642 22.5916 80.4995C21.1108 70.4111 32.4923 55.5579 50.1035 45.3901C57.3195 41.2236 64.8196 38.2719 71.8324 36.7693C71.9966 36.737 72.1526 36.6723 72.2915 36.579C72.4303 36.4857 72.5493 36.3658 72.6413 36.2261C72.7333 36.0864 72.7966 35.9298 72.8275 35.7654C72.8584 35.601 72.8563 35.4321 72.8213 35.2685C72.7862 35.1049 72.719 34.95 72.6235 34.8127C72.5279 34.6753 72.406 34.5584 72.2649 34.4687C72.1237 34.3789 71.9661 34.3182 71.8012 34.29C71.6363 34.2618 71.4675 34.2667 71.3045 34.3044V34.3044Z" fill="#9FEAF9"/>
<path d="M41.485 88.7426C45.6936 100.493 52.5778 107.728 60.319 107.728C65.9648 107.728 71.1882 103.879 75.2615 97.1034C75.3497 96.9615 75.4087 96.8034 75.4353 96.6385C75.4618 96.4735 75.4553 96.3049 75.4161 96.1425C75.3769 95.9801 75.3058 95.8271 75.2069 95.6924C75.1081 95.5577 74.9834 95.444 74.8402 95.3579C74.697 95.2718 74.5381 95.2151 74.3728 95.1909C74.2075 95.1668 74.039 95.1758 73.8772 95.2173C73.7153 95.2589 73.5634 95.3322 73.4301 95.433C73.2969 95.5338 73.185 95.6601 73.101 95.8045C69.4403 101.894 64.9439 105.207 60.319 105.207C53.8885 105.207 47.7482 98.7539 43.8587 87.8932C43.8054 87.7342 43.721 87.5874 43.6103 87.4614C43.4995 87.3355 43.3648 87.2328 43.2139 87.1596C43.063 87.0864 42.8991 87.044 42.7316 87.0349C42.5641 87.0258 42.3966 87.0503 42.2386 87.1068C42.0807 87.1633 41.9357 87.2507 41.812 87.364C41.6883 87.4773 41.5885 87.6141 41.5184 87.7664C41.4482 87.9188 41.4092 88.0836 41.4036 88.2512C41.3979 88.4188 41.4258 88.5859 41.4855 88.7426H41.485ZM79.9224 86.4441C82.1013 79.4828 83.2712 71.4523 83.2712 63.084C83.2712 42.2025 75.9625 24.2018 65.5527 19.5797C65.2486 19.4524 64.9067 19.4492 64.6003 19.5709C64.2939 19.6927 64.0474 19.9296 63.9136 20.2309C63.7798 20.5322 63.7694 20.874 63.8846 21.1829C63.9998 21.4918 64.2314 21.7433 64.5299 21.8835C73.8142 26.0064 80.75 43.0897 80.75 63.084C80.75 71.2028 79.6171 78.9794 77.517 85.6911C77.4649 85.8498 77.4448 86.0173 77.4579 86.1838C77.471 86.3504 77.5171 86.5127 77.5935 86.6612C77.6699 86.8098 77.7751 86.9417 77.9029 87.0493C78.0307 87.1568 78.1786 87.2379 78.3381 87.2878C78.4975 87.3377 78.6653 87.3554 78.8316 87.3399C78.9979 87.3244 79.1595 87.276 79.307 87.1975C79.4544 87.119 79.5848 87.0119 79.6905 86.8826C79.7963 86.7533 79.8752 86.6042 79.9229 86.4441H79.9224ZM103.661 85.2095C103.661 81.8777 100.96 79.177 97.6286 79.177C94.2968 79.177 91.596 81.8777 91.596 85.2095C91.596 88.5412 94.2968 91.242 97.6286 91.242C100.96 91.242 103.661 88.5412 103.661 85.2095ZM101.14 85.2095C101.14 85.6707 101.05 86.1273 100.873 86.5534C100.697 86.9795 100.438 87.3666 100.112 87.6927C99.7857 88.0188 99.3986 88.2775 98.9725 88.454C98.5464 88.6305 98.0897 88.7213 97.6286 88.7213C97.1674 88.7213 96.7107 88.6305 96.2846 88.454C95.8586 88.2775 95.4714 88.0188 95.1453 87.6927C94.8192 87.3666 94.5605 86.9795 94.384 86.5534C94.2076 86.1273 94.1167 85.6707 94.1167 85.2095C94.1167 84.2781 94.4867 83.3848 95.1453 82.7262C95.8039 82.0676 96.6972 81.6976 97.6286 81.6976C98.56 81.6976 99.4532 82.0676 100.112 82.7262C100.77 83.3848 101.14 84.2781 101.14 85.2095ZM22.9224 91.242C26.2546 91.242 28.9554 88.5412 28.9554 85.2095C28.9554 81.8777 26.2542 79.177 22.9224 79.177C19.5911 79.177 16.8899 81.8777 16.8899 85.2095C16.8899 88.5412 19.5911 91.242 22.9224 91.242ZM22.9224 88.7213C21.991 88.7213 21.0978 88.3513 20.4392 87.6927C19.7806 87.0341 19.4106 86.1409 19.4106 85.2095C19.4106 84.2781 19.7806 83.3848 20.4392 82.7262C21.0978 82.0676 21.991 81.6976 22.9224 81.6976C23.8538 81.6976 24.7471 82.0676 25.4056 82.7262C26.0642 83.3848 26.4342 84.2781 26.4342 85.2095C26.4342 86.1409 26.0642 87.0341 25.4056 87.6927C24.7471 88.3513 23.8538 88.7213 22.9224 88.7213V88.7213Z" fill="#9FEAF9"/>
<path d="M60.3189 25.7333C63.6507 25.7333 66.3515 23.0325 66.3515 19.7008C66.3515 16.369 63.6507 13.6683 60.3189 13.6683C56.9872 13.6683 54.2864 16.369 54.2864 19.7008C54.2864 23.0325 56.9872 25.7333 60.3189 25.7333V25.7333ZM60.3189 23.2126C59.3876 23.2126 58.4943 22.8426 57.8357 22.184C57.1771 21.5254 56.8071 20.6322 56.8071 19.7008C56.8071 18.7694 57.1771 17.8761 57.8357 17.2175C58.4943 16.5589 59.3876 16.1889 60.3189 16.1889C61.2503 16.1889 62.1436 16.5589 62.8022 17.2175C63.4608 17.8761 63.8308 18.7694 63.8308 19.7008C63.8308 20.6322 63.4608 21.5254 62.8022 22.184C62.1436 22.8426 61.2503 23.2126 60.3189 23.2126V23.2126ZM61.2402 67.3502C58.884 67.8593 56.5628 66.3619 56.0528 64.0057C55.8085 62.8742 56.0237 61.6921 56.6509 60.7193C57.278 59.7464 58.2659 59.0625 59.3973 58.8178C61.7535 58.3088 64.0747 59.8061 64.5851 62.1623C65.0942 64.5185 63.5968 66.8402 61.2402 67.3502Z" fill="#9FEAF9"/>
</svg>
